# xmcd
#
# Track frame offsets:
#	150
#	13615
#	25555
#	37103
#	52058
#	67923
#	78283
#	90333
#	105420
#	125163
#	141055
#	156355
#	169040
#	182810
#	201663
#	215033
#	230065
#	244135
#	253668
#	264560
#
# Disc length: 3722 seconds
#
# Revision: 1
# Processed by: cddbd v1.5.2PL0 Copyright (c) Steve Scherf et al.
# Submitted via: EZCDAudioConverter 6.0.7.1
#
DISCID=1e0e8814
DTITLE=Kenny Rogers and The First Edition - Ruby Don't Take Your Love To Town
DYEAR=1994
DGENRE=Country
TTITLE0=Ruby Don't Take Your Love To Town (Live Concert Recording)
TTITLE1=Me And Bobby Mcgee (Live Concert Recording)
TTITLE2=Poem For My Little Lady (Live Concert Recording)
TTITLE3=For The Good Times (Live Concert Recording)
TTITLE4=Good Lady Of Toronto (Live Concert Recording)
TTITLE5=Where Does Rosie Go (Live Concert Recording)
TTITLE6=What Am I Gonna Do (Live Concert Recording)
TTITLE7=All God's Lonely Children (Live Concert Recording)
TTITLE8=Lay It Down (Live Concert Recording)
TTITLE9=Tulsa Turn Around (Live Concert Recording)
TTITLE10=Tell It All Brother (Live Concert Recording)
TTITLE11=Love Woman (Live Concert Recording)
TTITLE12=I'm Going To Sing You A Sad Song Susie (Live Concert Recording)
TTITLE13=King Of Oak Street (Live Concert Recording)
TTITLE14=Shine On Ruby Mountain (Live Concert Recording)
TTITLE15=Heed The Call (Live Concert Recording)
TTITLE16=Molly (Live Concert Recording)
TTITLE17=Camptown Ladies (Live Concert Recording)
TTITLE18=We All Got To Help Each Other (Live Concert Recording)
TTITLE19=After All (Live Concert Recording)
EXTD=
EXTT0=
EXTT1=
EXTT2=
EXTT3=
EXTT4=
EXTT5=
EXTT6=
EXTT7=
EXTT8=
EXTT9=
EXTT10=
EXTT11=
EXTT12=
EXTT13=
EXTT14=
EXTT15=
EXTT16=
EXTT17=
EXTT18=
EXTT19=
PLAYORDER=
